<?xml version="1.0" encoding="utf-8"?>
<!-- Generator: Adobe Illustrator 19.0.0, SVG Export Plug-In . SVG Version: 6.00 Build 0)  -->
<svg version="1.1" id="Layer_1" xmlns="http://www.w3.org/2000/svg" xmlns:xlink="http://www.w3.org/1999/xlink" x="0px" y="0px"
	 viewBox="0 0 328 328" style="enable-background:new 0 0 328 328;" xml:space="preserve">
<style type="text/css">
	.st0{fill:#FFFFFF;}
</style>
<g id="XMLID_34_">
	<path id="XMLID_6_" class="st0" d="M164,4L164,4C75.6,4,4,75.6,4,164v0c0,88.4,71.6,160,160,160h0c88.4,0,160-71.6,160-160v0
		C324,75.6,252.4,4,164,4z M240.7,179L240.7,179L164,255.6L87.3,179l0,0h0c-21.2-21.2-21.2-55.5,0-76.7l0,0
		c21.2-21.2,55.5-21.2,76.7,0h0c21.2-21.2,55.5-21.2,76.7,0l0,0C261.8,123.5,261.8,157.8,240.7,179z"/>
	<path id="XMLID_9_" d="M164,328C73.6,328,0,254.4,0,164S73.6,0,164,0s164,73.6,164,164S254.4,328,164,328z M164,8C78,8,8,78,8,164
		s70,156,156,156s156-70,156-156S250,8,164,8z M164,261.3l-79.5-79.5c-11-11-17.1-25.6-17.1-41.2s6.1-30.2,17.1-41.2
		c21.8-21.8,56.7-22.7,79.5-2.6c10.6-9.3,24.1-14.4,38.3-14.4c15.5,0,30.2,6.1,41.2,17.1c22.7,22.7,22.7,59.6,0,82.3L164,261.3z
		 M125.7,90.4c-12.9,0-25.7,4.9-35.5,14.7c-9.5,9.5-14.7,22.1-14.7,35.5s5.2,26,14.7,35.5L164,250l73.8-73.8
		c19.6-19.6,19.6-51.4,0-71c-9.5-9.5-22.1-14.7-35.5-14.7s-26,5.2-35.5,14.7L164,108l-2.8-2.8C151.4,95.3,138.5,90.4,125.7,90.4z"/>
</g>
</svg>
