<?xml version="1.0" encoding="utf-8"?>
<!-- Generator: Adobe Illustrator 19.0.0, SVG Export Plug-In . SVG Version: 6.00 Build 0)  -->
<svg version="1.1" id="Layer_1" xmlns="http://www.w3.org/2000/svg" xmlns:xlink="http://www.w3.org/1999/xlink" x="0px" y="0px"
	 viewBox="0 0 328 328" style="enable-background:new 0 0 328 328;" xml:space="preserve">
<style type="text/css">
	.st0{stroke:#FFFFFF;stroke-miterlimit:10;}
	.st1{fill:#FFFFFF;}
</style>
<rect id="XMLID_6_" x="54" y="63.4" class="st0" width="222.5" height="203.2"/>
<path id="XMLID_64_" class="st1" d="M164,0L164,0C73.4,0,0,73.4,0,164v0c0,90.6,73.4,164,164,164h0c90.6,0,164-73.4,164-164v0
	C328,73.4,254.6,0,164,0z M211.4,178.1c-10,47.9-39.8,49.8-39.8,49.8s-43.1,7.4-69.5-9.7S78,174,78,174h1l2.9-6.2l4.8,3.9
	c-0.2-5.5,0.8-11.3,2.1-16.5c-0.3,0-0.7,0.1-1,0.1c-5.5,0-10-4.5-10-10c0-2.1,0.7-4.1,1.8-5.7c0,0,2.7-4.4,8.2-4.3
	c2.4,0,4.6,0.9,6.3,2.3c0.2-0.3,0.5-0.5,0.7-0.8c0.1-0.1,0.2-0.2,0.3-0.3c0,0,0.1-0.1,0.1-0.1c0.2-0.2,0.4-0.4,0.6-0.5
	c2.5-4.1,9.3-12.4,25.7-17.6c4.6-6.6,1.3-17.5,1.3-17.5s17.5-3.3,32-1.9c28.1,2.5,34.1,15,35.4,21.1c28.5,13,23,42.4,23,42.4
	L211.4,178.1l2.3-18.6c0,0,12.6-36.4,24.5-40.9c0,0-12.6,45.1,11.9,96.9C250,215.5,224.8,207,211.4,178.1z"/>
<g id="XMLID_34_">
	<g id="XMLID_49_">
		<path id="XMLID_53_" d="M164,0C73.6,0,0,73.6,0,164s73.6,164,164,164s164-73.6,164-164S254.4,0,164,0z M164,320
			C78,320,8,250,8,164S78,8,164,8s156,70,156,156S250,320,164,320z"/>
	</g>
</g>
</svg>
